<svg width="848" height="387" viewBox="0 0 848 387" fill="none" xmlns="http://www.w3.org/2000/svg">
<g id="robot">
<g id="shoes">
<path id="Vector" d="M376.92 354.99C390.207 363.579 405.578 368.397 421.39 368.93C421.108 369.599 420.791 370.254 420.44 370.89C418.599 374.288 415.998 377.214 412.84 379.44C409.1 382.072 404.709 383.626 400.147 383.934C395.584 384.241 391.025 383.289 386.966 381.182C382.907 379.076 379.505 375.895 377.13 371.986C374.756 368.078 373.5 363.593 373.5 359.02V354.99H376.92Z" fill="#AC84B4"/>
<path id="Vector_2" d="M470.19 356.17V359.02C470.192 364.568 468.345 369.959 464.942 374.341C461.538 378.723 456.771 381.846 451.395 383.217C446.018 384.587 440.338 384.127 435.252 381.909C430.166 379.692 425.964 375.842 423.31 370.97C422.944 370.318 422.614 369.647 422.32 368.96C423.05 368.98 423.77 368.99 424.5 368.99C440.62 369.009 456.432 364.572 470.19 356.17Z" fill="#AC84B4"/>
</g>
<g id="body">
<path id="Vector_3" d="M424.5 190.99C400.99 191.001 378.418 200.211 361.611 216.65C344.804 233.089 335.098 255.452 334.567 278.956C334.037 302.46 342.725 325.238 358.773 342.419C374.821 359.6 396.954 369.819 420.44 370.89C421.39 370.94 422.35 370.97 423.31 370.97C423.71 370.99 424.1 370.99 424.5 370.99C448.369 370.99 471.261 361.508 488.14 344.63C505.018 327.751 514.5 304.859 514.5 280.99C514.5 257.12 505.018 234.229 488.14 217.35C471.261 200.472 448.369 190.99 424.5 190.99V190.99ZM470.19 356.17C456.432 364.572 440.62 369.009 424.5 368.99C423.77 368.99 423.05 368.98 422.32 368.96C422.01 368.96 421.7 368.95 421.39 368.93C400.258 368.195 380.097 359.881 364.59 345.507C349.083 331.132 339.266 311.658 336.935 290.642C334.603 269.627 339.911 248.474 351.89 231.05C363.869 213.625 381.718 201.094 402.174 195.745C422.631 190.396 444.33 192.587 463.304 201.917C482.278 211.248 497.262 227.095 505.515 246.562C513.769 266.029 514.741 287.816 508.255 307.942C501.769 328.067 488.257 345.186 470.19 356.17Z" fill="#3F3D56"/>
<ellipse id="Ellipse 2" cx="424.52" cy="280.99" rx="89.98" ry="90" fill="#722283"/>
</g>
<g id="badge">
<path id="Vector_4" d="M487.667 258.823H448.333C445.593 258.823 442.964 257.735 441.026 255.797C439.088 253.859 438 251.231 438 248.49C438 245.749 439.088 243.121 441.026 241.183C442.964 239.245 445.593 238.156 448.333 238.156H487.667C490.407 238.156 493.036 239.245 494.974 241.183C496.912 243.121 498 245.749 498 248.49C498 251.231 496.912 253.859 494.974 255.797C493.036 257.735 490.407 258.823 487.667 258.823Z" fill="#3F3D56"/>
<path id="Vector_5" d="M450.956 253.734C453.852 253.734 456.2 251.386 456.2 248.49C456.2 245.594 453.852 243.246 450.956 243.246C448.059 243.246 445.711 245.594 445.711 248.49C445.711 251.386 448.059 253.734 450.956 253.734Z" fill="#F2F2F2"/>
<path id="Vector_6" d="M468 253.734C470.896 253.734 473.244 251.386 473.244 248.49C473.244 245.594 470.896 243.246 468 243.246C465.104 243.246 462.756 245.594 462.756 248.49C462.756 251.386 465.104 253.734 468 253.734Z" fill="#F2F2F2"/>
<path id="Vector_7" d="M485.044 253.734C487.941 253.734 490.289 251.386 490.289 248.49C490.289 245.594 487.941 243.246 485.044 243.246C482.148 243.246 479.8 245.594 479.8 248.49C479.8 251.386 482.148 253.734 485.044 253.734Z" fill="#6C63FF"/>
</g>
<g id="head">
<path id="Vector_8" d="M503.83 54.79C503.08 54.68 502.32 54.61 501.56 54.56C510.196 74.4629 510.795 96.9357 503.23 117.27C503.99 117.18 504.74 117.06 505.49 116.92C512.814 115.501 519.396 111.529 524.065 105.712C528.735 99.8941 531.188 92.6084 530.989 85.1515C530.789 77.6945 527.95 70.5502 522.977 64.9903C518.004 59.4305 511.219 55.8159 503.83 54.79V54.79Z" fill="#AC84B4"/>
<path id="Vector_9" d="M347.44 54.56C346.68 54.61 345.92 54.68 345.17 54.79C337.781 55.8159 330.996 59.4305 326.023 64.9903C321.049 70.5502 318.211 77.6945 318.011 85.1515C317.812 92.6084 320.265 99.8942 324.935 105.712C329.604 111.529 336.186 115.501 343.51 116.92C344.26 117.06 345.01 117.18 345.77 117.27C338.205 96.9357 338.804 74.4629 347.44 54.56Z" fill="#AC84B4"/>
<circle id="Ellipse 1" cx="424.505" cy="87.995" r="85.995" fill="#722283"/>
<path id="Vector_10" d="M468.5 68.49H380.5C375.859 68.49 371.407 70.3337 368.126 73.6156C364.844 76.8975 363 81.3487 363 85.99C363 90.6313 364.844 95.0825 368.126 98.3643C371.407 101.646 375.859 103.49 380.5 103.49H468.5C473.141 103.49 477.592 101.646 480.874 98.3643C484.156 95.0825 486 90.6313 486 85.99C486 81.3487 484.156 76.8975 480.874 73.6156C477.592 70.3337 473.141 68.49 468.5 68.49Z" fill="white"/>
</g>
</g>
</svg>
